<svg xmlns="http://www.w3.org/2000/svg" version="1.1" xmlns:xlink="http://www.w3.org/1999/xlink" xmlns:svgjs="http://svgjs.dev/svgjs" width="1000" height="750" viewBox="0 0 1000 750"><rect width="1000" height="750" fill="#ffffff"></rect><g transform="matrix(0.834,0,0,0.834,82.49454545454546,115.41937399977468)"><svg viewBox="0 0 396 247" data-background-color="#ffffff" preserveAspectRatio="xMidYMid meet" height="623" width="1000" xmlns="http://www.w3.org/2000/svg" xmlns:xlink="http://www.w3.org/1999/xlink"><g id="tight-bounds" transform="matrix(1,0,0,1,0.2400000000000091,-0.09999794255432448)"><svg viewBox="0 0 395.52 247.2" height="247.2" width="395.52"><g><svg viewBox="0 0 395.52 247.2" height="247.2" width="395.52"><g transform="matrix(1,0,0,1,112.38168674698794,0)"><svg viewBox="0 0 170.7566265060241 247.2" height="247.2" width="170.7566265060241"><g><svg viewBox="0 0 170.7566265060241 247.2" height="247.2" width="170.7566265060241"><g><svg viewBox="0 0 170.7566265060241 247.2" height="247.2" width="170.7566265060241"><g><svg viewBox="0 0 170.7566265060241 247.2" height="247.2" width="170.7566265060241"><g id="textblocktransform"><svg viewBox="0 0 170.7566265060241 247.2" height="247.2" width="170.7566265060241" id="textblock"><g><svg viewBox="0 0 170.7566265060241 247.2" height="247.2" width="170.7566265060241"><g transform="matrix(1,0,0,1,0,0)"><svg width="170.7566265060241" viewBox="2.950000047683716 -37.099998474121094 25.799999237060547 37.352115631103516" height="247.2" data-palette-color="#5e1914"><path d="M14.75 0.25L14.75 0.25Q11.25 0.3 8.95-0.83 6.65-1.95 5.35-4.25 4.05-6.55 3.5-10.1 2.95-13.65 2.95-18.5L2.95-18.5Q2.95-23.15 3.53-26.65 4.1-30.15 5.5-32.48 6.9-34.8 9.33-35.95 11.75-37.1 15.4-37.1L15.4-37.1Q17.35-37.1 19.45-36.95 21.55-36.8 23.55-36.5 25.55-36.2 27.25-35.8L27.25-35.8 27.25-32.8Q26.25-32.95 24.45-33.13 22.65-33.3 20.43-33.4 18.2-33.5 16-33.5L16-33.5Q12.4-33.5 10.43-32.02 8.45-30.55 7.68-27.23 6.9-23.9 6.9-18.45L6.9-18.45Q6.9-14.05 7.33-11.15 7.75-8.25 8.75-6.55 9.75-4.85 11.48-4.13 13.2-3.4 15.85-3.4L15.85-3.4Q18.2-3.4 20.7-4 23.2-4.6 24.95-5.3L24.95-5.3 24.95-16.15 16.05-16.15 16.05-19.1Q17-19.25 18.35-19.35 19.7-19.45 21.23-19.53 22.75-19.6 24.3-19.6L24.3-19.6Q25.6-19.6 26.75-19.58 27.9-19.55 28.75-19.4L28.75-19.4 28.75 0 25.85 0 25.25-2.6Q23.45-1.7 20.68-0.75 17.9 0.2 14.75 0.25Z" opacity="1" transform="matrix(1,0,0,1,0,0)" fill="#5e1914" class="undefined-text-0" data-fill-palette-color="primary" id="text-0"></path></svg></g></svg></g></svg></g></svg></g></svg></g></svg></g></svg></g></svg></g><defs></defs></svg><rect width="395.52" height="247.2" fill="none" stroke="none" visibility="hidden"></rect></g></svg></g></svg>